<svg viewBox="0 0 792.56 540.47" xmlns="http://www.w3.org/2000/svg" data-name="Layer 2" id="Layer_2">
  <defs>
    <style>
      .cls-1 {
        fill: #2f5fa7;
      }

      .cls-2 {
        fill: #63c1e5;
      }

      .cls-3 {
        fill: #273b77;
      }
    </style>
  </defs>
  <g data-name="Layer 1" id="Layer_1-2">
    <g>
      <path d="M533.78,97.09h83.46c57.42,0,78.65,27.93,78.65,62.39s-21.24,62.38-78.65,62.38h-104.67c16.18,7.67,30.5,17.09,42.89,28.29,35.02,31.66,53.53,76.91,53.53,130.85,0,19.56-2.47,37.95-7.24,54.99l43.89,104.48h116.98,0s0-.02,0-.02v.02s-99.18-236.14-99.18-236.14h-.08c7.37-1.24,14.4-2.74,21.07-4.55,75.83-20.56,106.61-77.93,108.14-145.65-1.53-67.72-32.31-125.09-108.14-145.65-19.38-5.25-41.65-8.15-67.18-8.15h-124.07l40.61,96.75Z" class="cls-1"></path>
      <path d="M383.66,221.77c-57.42,0-78.65-27.93-78.65-62.39s21.24-62.39,78.65-62.39h123.33L466.39.25h-57.49c-113.42,0-171.46,42.74-191.9,102.84l82.82,197.16c28.55,11.65,64.52,18.28,109.08,18.28,57.42,0,78.65,27.93,78.65,62.39s-21.24,62.39-78.65,62.39h-111.43l36.63,87.28,3.98,9.47h45.59c146.46,0,200.64-71.25,200.64-159.14s-54.18-159.14-200.64-159.14" class="cls-2"></path>
      <path d="M108.14,531.99c19.38,5.25,41.65,8.15,67.18,8.15h25.96s.02,0,.04,0h110.02s-40.61-96.75-40.61-96.75h-95.41c-57.42,0-78.65-27.93-78.65-62.39s21.24-62.38,78.65-62.38h105.43L146.91,0H29.94s0,0,0,0v.02s0-.02,0-.02l99.19,236.14h.08c-7.37,1.24-14.4,2.74-21.07,4.55C32.31,261.26,1.53,318.63,0,386.34c1.53,67.72,32.31,125.08,108.14,145.65" class="cls-3"></path>
    </g>
  </g>
</svg>